Patient4_TMGait_0pt6_02_left_32_EMG.mot
version=1
nRows=23
nColumns=33
inDegrees=no
endheader
time	1LAddLong	2LGlutMax	3LGlutMed	4LIliopsoas	5LSemiMemb	6LBicFemLong	7LRecFem	8LVastMed	9LVastLat	10LGasMed	11LTibAnt	12lTibPost	13LPeroneusLong	14LSol	15LExtDigLong	16LFlexDigLong	17RAddLong	18RGlutMax	19RGlutMed	20RIliopsoas	21RSemiMemb	22RBicFemLong	23RRecFem	24RVastMed	25RVastLat	26RGasMed	27RTibAnt	28RTibPost	29RPeroneusLong	30RSol	31RExtDigLong	32RFlexDigLong
39.517	0.023956	0.032654	0.013428	0.026093	-0.066071	-0.097198	0.003204	-0.050507	-0.45685	0.027924	0.028381	0.043945	0.26566	-0.020599	-0.027313	0.061035	-0.062866	0.56335	-0.3685	0.14954	-0.007019	-0.057068	0.5629	-0.017242	0.041656	-0.039673	-0.093842	-0.15243	2.0105	0.076599	-0.001831	-0.000153
39.518	-0.013275	0.028229	0.072784	-0.007172	-0.11231	-0.25513	-0.022583	-0.03418	-0.31982	0.012512	0.022278	0.047913	0.035706	0.001831	-0.05127	0.075989	-0.071411	0.53146	-0.29602	0.25818	0.00351	-0.020752	0.57892	0.031891	0.033569	-0.018463	-0.078125	-0.050812	1.5427	0.14038	-0.00351	0.012054
39.519	-0.006714	-0.022125	0.01297	0.004272	-0.10895	-0.19211	-0.12405	-0.015259	-0.2832	-0.040436	0.0354	0.053406	-0.05127	0.090485	0.03006	0.061188	-0.062714	0.51132	-0.27191	0.23453	0.009308	-0.029755	0.57587	0.064392	0.032806	0.006409	-0.087891	0.067902	0.9108	0.71304	-0.002441	0.022125
39.52	0.010071	-0.022736	0.045013	0.000305	-0.1059	-0.084381	-0.16968	0.001984	-0.3569	-0.080261	0.049591	0.062561	-0.51682	0.14618	0.058746	0.059509	-0.046387	0.47302	-0.31601	0.224	0.023346	0.004272	0.57877	0.049591	0.012207	0.027466	-0.040283	0.059662	0.36316	0.2356	-0.004883	-0.007324
39.521	0.029907	-0.003357	-0.03479	0.001984	-0.081482	-0.17029	-0.2179	-0.00946	-0.2945	-0.084991	0.070801	0.069275	-0.26718	0.07782	-0.082855	0.050659	-0.029907	0.42633	-0.36987	0.2002	0.027924	0.013733	0.62714	0.050659	-0.004425	0.012512	-0.029297	0.13245	-0.021057	-0.39719	-0.003204	-0.011444
39.522	0.041046	-0.019226	-0.051727	0.013123	-0.063477	-0.35934	-0.27359	-0.011292	-0.1947	-0.045929	0.061951	0.070648	0.15121	-0.007172	-0.26001	0.04837	-0.003967	0.37827	-0.32471	0.18677	0.04776	0.024109	0.59403	0.036621	0.009918	0.004578	-0.024567	0.066376	-0.018463	-0.25955	-0.002899	-0.001526
39.523	0.044861	0.038452	-0.078583	-0.005188	-0.041199	-0.50323	-0.32547	-0.006409	-0.14343	-0.067596	0.021515	0.076599	0.064087	-0.035248	-0.25497	0.06546	-0.011444	0.36697	-0.3801	0.14008	0.046234	0.024872	0.5928	-0.000153	0.009766	-0.029907	-0.0354	0.060883	0.37064	-0.007019	-0.003357	0
39.524	0.045624	0.065918	-0.15243	-0.017395	-0.077972	-0.3952	-0.35034	-0.008392	-0.099792	-0.098724	0.000458	0.081787	-0.14984	-0.032806	-0.18555	0.055695	-0.006866	0.32883	-0.23285	0.026703	0.061035	0.041351	0.60486	-0.020447	0.013275	-0.047913	-0.007172	-0.018311	0.81299	0.33341	-0.002899	-0.005493
39.525	0.088196	0.080872	-0.21835	0.006866	-0.1738	-0.21698	-0.39871	-0.007477	-0.059204	-0.027618	0.030365	0.081024	-0.33752	-0.15243	-0.16541	0.059509	-0.027161	0.30716	-0.10391	-0.065308	0.028381	0.03006	0.58533	-0.053864	0.015564	-0.018005	0.074158	-0.18112	0.39429	0.12848	-0.001984	-0.008392
39.526	0.004425	0.18158	-0.2475	-0.010681	-0.14282	-0.001526	-0.42053	-0.002441	-0.041199	0.008087	0.014191	0.078278	-0.24384	-0.088806	0.11795	0.04776	0.00351	0.27817	-0.30868	-0.034637	0.010529	0.011749	0.5954	-0.04837	-0.006104	-0.003052	0.10712	0.18845	0.14008	-0.4303	-0.002136	-0.00824
39.527	0.080719	0.31891	-0.17303	-0.003967	-0.004883	0.062561	-0.46646	0.000153	0.02182	0.015869	0.032043	0.082397	0.2063	0.005951	0.30945	0.050201	0.052643	0.18829	-0.4744	-0.035248	0.005646	0.024567	0.54413	-0.06424	-0.006256	0.016022	0.027313	-0.003967	0.24857	-0.53009	0.001221	-0.003357
39.528	0.014954	0.38284	0.069122	-0.006256	-0.007935	0.07782	-0.47363	0.002899	0.041199	0.040894	0.055389	0.086212	0.072174	0.065918	0.21591	0.056458	0.11246	0.20248	-0.3186	-0.10162	0.005646	0.034485	0.57373	-0.043488	0.006409	0.024567	-0.040436	0.026703	-0.033875	-0.1915	-0.009003	0.001068
39.529	-0.000153	0.43945	0.061188	-0.018921	-0.086212	0.1387	-0.51178	0.004425	0.029907	0.034637	0.027161	0.087433	0.16998	0.2182	0.19302	0.066833	0.13779	0.056458	-0.27374	-0.11322	0.009766	0.038452	0.49683	-0.067749	0.007172	0.014648	-0.094452	-0.037384	-0.25055	-0.075378	-0.002899	-0.001068
39.53	-0.002136	0.5368	0.11261	-0.036163	-0.035095	0.1741	-0.4985	-0.006104	0.058136	0.031281	-0.018463	0.076294	0.36835	0.16846	0.15793	0.080414	0.1445	0.016632	-0.12222	-0.092773	0.023499	0.046387	0.53085	-0.059509	0.015259	-0.011749	-0.14755	-0.050964	0.044098	0.065918	0.000916	-0.000458
39.531	0.005646	0.63004	0.21316	-0.013885	-0.03418	0.11459	-0.5014	-0.012817	0.072479	0.061951	-0.02243	0.07431	-0.001068	-0.042725	-0.00824	0.063934	0.1294	0.051575	-0.19608	-0.002289	0.039368	0.05249	0.401	-0.040894	0.026245	-0.012512	-0.11627	-0.022278	0.18845	-0.103	-0.000763	0.001068
39.532	0.025177	0.71014	0.10361	0.003815	0.026703	0.048523	-0.47974	-0.003967	0.099182	0.12375	0.034943	0.075226	-0.30395	-0.13107	-0.081635	0.04364	0.081024	-0.003357	-0.39825	0.015411	0.03952	0.04303	0.35202	-0.002899	0.019379	-0.007172	-0.048065	-0.043793	-0.079803	-0.25467	-0.003052	-0.011597
39.533	0.026093	0.74661	0.055847	0.009918	0.004272	0.060883	-0.47394	-0.001221	0.20538	0.17761	0.045013	0.070953	0.16235	-0.071869	-0.11154	0.026245	0.044708	-0.10178	-0.58975	0.026703	0.04715	0.026855	0.32562	0.000763	0.016174	-0.003052	-0.014496	-0.11353	-0.24384	-0.2887	-0.002747	-0.002594
39.534	0.014191	0.67688	0.081787	0.021057	-0.006409	0.20508	-0.44861	0.006409	0.27268	0.14954	0.03418	0.063171	0.074615	-0.12207	0.02594	0.022888	0.048523	-0.26459	-0.61783	-0.006561	0.048065	0.016479	0.43884	-0.084381	0.00946	0.014191	0.008087	-0.097351	-0.28488	-0.22995	-0.002441	-0.009613
39.535	0.013428	0.68665	0.078888	0.028229	0.005951	0.30273	-0.42053	0.014801	0.22858	0.1358	0.017395	0.059509	0.039978	-0.59387	-0.024414	0.016632	-0.00061	-0.30411	-0.49774	-0.035248	0.044403	0.011597	0.50293	-0.13062	0.003967	0.023346	0.025635	-0.10407	-0.15549	0.18707	-0.000916	-0.004425
39.536	-0.002594	0.67551	0.10941	0.023651	0.039368	0.24002	-0.40802	0.023956	0.15518	0.11276	0.005188	0.038147	0.26413	-0.60028	0.013885	0.014496	-0.05661	-0.37827	-0.60593	0.006409	0.039825	0.019226	0.56061	-0.1088	-0.001678	0.026398	0.018005	0.045624	0.10864	-0.022736	0.001526	0.001373
39.537	-0.01358	0.61432	0.056	0.013428	0.000916	0.21545	-0.36957	0.021362	0.074768	0.11337	0.01236	0.053406	0.30197	-0.40405	0.045166	0.020294	-0.083008	-0.49423	-0.52216	-0.076294	0.044403	0.023193	0.4837	-0.045471	0.008545	0.028534	0.02121	-0.023956	0.13733	-0.2507	0	0.006104
39.538	-0.021515	0.4483	-0.030212	0.00061	-0.029602	0.1329	-0.32562	0.020447	0.035706	0.090942	-0.001984	0.034485	0.2861	-0.3009	0.055084	0.021362	-0.086517	-0.53726	-0.59937	-0.080719	0.054932	0.043945	0.40314	-0.14008	0.01358	0.015411	0.001068	-0.001373	0.12589	-0.40558	-0.002594	0.001831
39.539	-0.019073	0.2652	-0.073242	-0.003052	-0.10544	0.062866	-0.31708	0.015717	0.041351	0.046539	-0.005798	0.031586	-0.22018	-0.22278	0.026855	0.00824	-0.10513	-0.68695	-0.71045	0.061493	0.050354	0.071411	0.48737	-0.103	0.018158	0.007172	0.005341	0.021057	0.2739	-0.4895	-0.001831	0.00412
